<svg xmlns="http://www.w3.org/2000/svg" width="24.485" height="20.37" viewBox="0 0 24.485 20.37">
  <g id="right-arrow_1_" data-name="right-arrow (1)" transform="translate(24.485 20.37) rotate(180)">
    <g id="Group_650" data-name="Group 650">
      <path id="Path_38887" data-name="Path 38887" d="M24.094,9.234,15.251.391a1.344,1.344,0,0,0-1.9,0l-.8.8a1.33,1.33,0,0,0-.391.948,1.356,1.356,0,0,0,.391.959l5.159,5.17H1.323A1.308,1.308,0,0,0,0,9.588v1.135A1.358,1.358,0,0,0,1.323,12.1H17.77l-5.217,5.2a1.327,1.327,0,0,0,0,1.882l.8.8a1.344,1.344,0,0,0,1.9,0l8.842-8.842a1.351,1.351,0,0,0,0-1.9Z" fill="#fff"/>
    </g>
  </g>
</svg>
