<svg id="phone-call_2_" data-name="phone-call (2)" xmlns="http://www.w3.org/2000/svg" width="27.297" height="27.354" viewBox="0 0 27.297 27.354">
  <g id="Group_709" data-name="Group 709">
    <path id="Path_38952" data-name="Path 38952" d="M27.12,20.075,23.3,16.258a2.539,2.539,0,0,0-4.226.954,2.6,2.6,0,0,1-3,1.636c-2.727-.682-6.408-4.226-7.089-7.089a2.471,2.471,0,0,1,1.636-3,2.539,2.539,0,0,0,.954-4.226L7.761.716a2.723,2.723,0,0,0-3.681,0l-2.59,2.59c-2.59,2.727.273,9.952,6.68,16.36s13.633,9.407,16.36,6.68l2.59-2.59A2.723,2.723,0,0,0,27.12,20.075Z" transform="translate(-0.539 0)" fill="#fff"/>
  </g>
</svg>
