<svg xmlns="http://www.w3.org/2000/svg" width="43.47" height="43.469" viewBox="0 0 43.47 43.469">
  <g id="close" transform="translate(0 -0.135)">
    <path id="Path_39653" data-name="Path 39653" d="M2.817,43.6A2.816,2.816,0,0,1,.826,38.8L38.661.961a2.816,2.816,0,0,1,3.982,3.982L4.808,42.779a2.8,2.8,0,0,1-1.991.825Zm0,0" transform="translate(0 0)" fill="#fff"/>
    <path id="Path_39654" data-name="Path 39654" d="M40.653,43.6a2.808,2.808,0,0,1-1.991-.825L.826,4.943A2.816,2.816,0,0,1,4.809.961L42.644,38.8A2.816,2.816,0,0,1,40.653,43.6Zm0,0" transform="translate(0 0)" fill="#fff"/>
  </g>
</svg>
